<?xml version="1.0" encoding="utf-8"?>
<!-- Generator: Adobe Illustrator 26.0.3, SVG Export Plug-In . SVG Version: 6.00 Build 0)  -->
<svg version="1.1" xmlns="http://www.w3.org/2000/svg" xmlns:xlink="http://www.w3.org/1999/xlink" x="0px" y="0px"
	 viewBox="0 0 1200 231.14" style="enable-background:new 0 0 1200 231.14;" xml:space="preserve">
<style type="text/css">
	.st0{fill:#3F3F3F;}
	.st1{display:none;fill:#3F3F3F;}
	.st2{fill:#FFFFFF;}
	.st3{fill:url(#SVGID_1_);}
</style>
<g id="Logo_-_Dark">
</g>
<g id="Logo_-_White">
</g>
<g id="Logo_-_Full">
	<g id="MediaGo_Logo_00000076582167905874161050000008856787503403247532_">
		<g>
			<linearGradient id="SVGID_1_" gradientUnits="userSpaceOnUse" x1="599.9999" y1="-2.441406e-04" x2="599.9999" y2="231.1355">
				<stop  offset="0" style="stop-color:#C473FE"/>
				<stop  offset="1" style="stop-color:#7837D1"/>
			</linearGradient>
			<path class="st3" d="M0,0l0,231.14l1200,0V0L0,0z M804.28,224.57H6.57l0-218h797.71V224.57z"/>
		</g>
		<path id="GO_00000114784669642311656290000013093810764578910879_" class="st2" d="M954.57,109.19h27.99v53.71
			c-7.19,5.42-15.51,9.58-24.96,12.48c-9.46,2.9-18.98,4.35-28.56,4.35c-13.74,0-26.1-2.93-37.07-8.79
			c-10.97-5.86-19.57-14-25.81-24.4c-6.24-10.4-9.36-22.16-9.36-35.27c0-13.11,3.12-24.87,9.36-35.27c6.24-10.4,14.91-18.53,26-24.4
			c11.09-5.86,23.58-8.79,37.44-8.79c11.6,0,22.13,1.96,31.58,5.86c9.46,3.91,17.4,9.58,23.83,17.02l-19.67,18.16
			c-9.46-9.96-20.87-14.94-34.23-14.94c-8.45,0-15.95,1.77-22.51,5.3c-6.56,3.53-11.66,8.51-15.32,14.94
			c-3.66,6.43-5.48,13.81-5.48,22.13c0,8.2,1.83,15.51,5.48,21.94c3.66,6.43,8.73,11.44,15.22,15.03c6.49,3.59,13.9,5.39,22.22,5.39
			c8.82,0,16.77-1.89,23.83-5.67V109.19z M1037.88,170.85c-11.03-5.92-19.67-14.09-25.91-24.49c-6.24-10.4-9.36-22.09-9.36-35.08
			c0-12.98,3.12-24.68,9.36-35.08c6.24-10.4,14.88-18.56,25.91-24.49c11.03-5.92,23.42-8.89,37.16-8.89
			c13.74,0,26.1,2.96,37.07,8.89c10.97,5.93,19.6,14.09,25.91,24.49c6.3,10.4,9.46,22.1,9.46,35.08c0,12.99-3.15,24.68-9.46,35.08
			c-6.31,10.4-14.94,18.57-25.91,24.49c-10.97,5.93-23.33,8.89-37.07,8.89C1061.3,179.73,1048.91,176.77,1037.88,170.85z
			 M1096.23,148.25c6.3-3.59,11.25-8.6,14.85-15.03c3.59-6.43,5.39-13.74,5.39-21.94c0-8.19-1.8-15.51-5.39-21.94
			c-3.59-6.43-8.54-11.44-14.85-15.03c-6.31-3.59-13.37-5.39-21.18-5.39c-7.82,0-14.88,1.8-21.18,5.39
			c-6.31,3.59-11.25,8.6-14.85,15.03c-3.59,6.43-5.39,13.74-5.39,21.94c0,8.2,1.8,15.51,5.39,21.94
			c3.59,6.43,8.54,11.44,14.85,15.03c6.3,3.59,13.36,5.39,21.18,5.39C1082.86,153.64,1089.92,151.84,1096.23,148.25z"/>
		<g id="MEDIA_00000170247782676997820800000011144759728572768678_">
			<g>
				<path class="st0" d="M162.35,172.56l-0.16-68.08l-33.39,56.09h-11.83l-33.23-54.63v66.63H59.09V59.09h21.72l42.47,70.52
					l41.82-70.52h21.56l0.32,113.47H162.35z M334.18,151.49v21.07h-87.86V59.09h85.75v21.07h-59.65v24.64h52.68v20.43h-52.68v26.26
					H334.18z M387.51,59.09h51.55c12.32,0,23.21,2.35,32.66,7.05c9.46,4.7,16.8,11.32,22.05,19.86c5.24,8.54,7.86,18.48,7.86,29.83
					s-2.62,21.29-7.86,29.83c-5.24,8.54-12.59,15.16-22.05,19.86c-9.46,4.7-20.34,7.05-32.66,7.05h-51.55V59.09z M437.76,151
					c11.35,0,20.4-3.16,27.15-9.48c6.75-6.32,10.13-14.89,10.13-25.69c0-10.81-3.38-19.37-10.13-25.69
					c-6.76-6.32-15.81-9.48-27.15-9.48h-23.99V151H437.76z M553.83,59.09h26.26v113.47h-26.26V59.09z M714.15,148.25h-52.68
					l-10.05,24.32H624.5l50.58-113.47h25.94l50.74,113.47H724.2L714.15,148.25z M705.88,128.31l-17.99-43.45l-17.99,43.45H705.88z"
					/>
			</g>
		</g>
	</g>
</g>
</svg>
