<?xml version="1.0" encoding="utf-8"?>
<!-- Generator: Adobe Illustrator 26.0.3, SVG Export Plug-In . SVG Version: 6.00 Build 0)  -->
<svg version="1.1" id="Layer_1" xmlns="http://www.w3.org/2000/svg" xmlns:xlink="http://www.w3.org/1999/xlink" x="0px" y="0px"
	 viewBox="0 0 1200 231.1" style="enable-background:new 0 0 1200 231.1;" xml:space="preserve">
<style type="text/css">
	.st0{fill:#FFFFFF;}
</style>
<g id="Logo_-_Dark">
</g>
<g id="Logo_-_White">
</g>
<g id="Logo_-_Full">
	<g id="MediaGo_Logo_00000076582167905874161050000008856787503403247532_">
		<g>
			<path class="st0" d="M1096.2,74.3c-6.3-3.6-13.4-5.4-21.2-5.4c-7.8,0-14.9,1.8-21.2,5.4c-6.3,3.6-11.2,8.6-14.8,15
				c-3.6,6.4-5.4,13.7-5.4,21.9c0,8.2,1.8,15.5,5.4,21.9s8.5,11.4,14.8,15c6.3,3.6,13.4,5.4,21.2,5.4c7.8,0,14.9-1.8,21.2-5.4
				c6.3-3.6,11.2-8.6,14.8-15c3.6-6.4,5.4-13.7,5.4-21.9c0-8.2-1.8-15.5-5.4-21.9S1102.5,77.9,1096.2,74.3z"/>
			<path class="st0" d="M0,0v231.1h1200V0H0z M804.3,224.6H6.6V6.6h797.7V224.6z M893.3,133.2c3.7,6.4,8.7,11.4,15.2,15
				c6.5,3.6,13.9,5.4,22.2,5.4c8.8,0,16.8-1.9,23.8-5.7v-38.8h0h28v53.7c-7.2,5.4-15.5,9.6-25,12.5c-9.5,2.9-19,4.3-28.6,4.3
				c-13.7,0-26.1-2.9-37.1-8.8c-11-5.9-19.6-14-25.8-24.4c-6.2-10.4-9.4-22.2-9.4-35.3s3.1-24.9,9.4-35.3
				c6.2-10.4,14.9-18.5,26-24.4c11.1-5.9,23.6-8.8,37.4-8.8c11.6,0,22.1,2,31.6,5.9c9.5,3.9,17.4,9.6,23.8,17l-19.7,18.2
				c-9.5-10-20.9-14.9-34.2-14.9c-8.5,0-16,1.8-22.5,5.3c-6.6,3.5-11.7,8.5-15.3,14.9c-3.7,6.4-5.5,13.8-5.5,22.1
				C887.8,119.5,889.6,126.8,893.3,133.2z M1138,146.4c-6.3,10.4-14.9,18.6-25.9,24.5c-11,5.9-23.3,8.9-37.1,8.9
				c-13.7,0-26.1-3-37.2-8.9c-11-5.9-19.7-14.1-25.9-24.5c-6.2-10.4-9.4-22.1-9.4-35.1c0-13,3.1-24.7,9.4-35.1s14.9-18.6,25.9-24.5
				c11-5.9,23.4-8.9,37.2-8.9s26.1,3,37.1,8.9s19.6,14.1,25.9,24.5c6.3,10.4,9.5,22.1,9.5,35.1C1147.5,124.3,1144.3,136,1138,146.4z
				"/>
		</g>
		<g id="MEDIA_00000170247782676997820800000011144759728572768678_">
			<g>
				<path class="st0" d="M162.4,172.6l-0.2-68.1l-33.4,56.1H117l-33.2-54.6v66.6H59.1V59.1h21.7l42.5,70.5l41.8-70.5h21.6l0.3,113.5
					H162.4z M334.2,151.5v21.1h-87.9V59.1h85.8v21.1h-59.6v24.6h52.7v20.4h-52.7v26.3H334.2z M387.5,59.1h51.5
					c12.3,0,23.2,2.3,32.7,7c9.5,4.7,16.8,11.3,22,19.9c5.2,8.5,7.9,18.5,7.9,29.8s-2.6,21.3-7.9,29.8c-5.2,8.5-12.6,15.2-22,19.9
					s-20.3,7.1-32.7,7.1h-51.5V59.1z M437.8,151c11.4,0,20.4-3.2,27.1-9.5c6.8-6.3,10.1-14.9,10.1-25.7c0-10.8-3.4-19.4-10.1-25.7
					c-6.8-6.3-15.8-9.5-27.1-9.5h-24V151H437.8z M553.8,59.1h26.3v113.5h-26.3V59.1z M714.2,148.2h-52.7l-10,24.3h-26.9l50.6-113.5
					H701l50.7,113.5h-27.6L714.2,148.2z M705.9,128.3l-18-43.4l-18,43.4H705.9z"/>
			</g>
		</g>
	</g>
</g>
</svg>
