<?xml version="1.0" encoding="utf-8"?>
<!-- Generator: Adobe Illustrator 26.0.3, SVG Export Plug-In . SVG Version: 6.00 Build 0)  -->
<svg version="1.1" id="Layer_1" xmlns="http://www.w3.org/2000/svg" xmlns:xlink="http://www.w3.org/1999/xlink" x="0px" y="0px"
	 viewBox="0 0 400 200" style="enable-background:new 0 0 400 200;" xml:space="preserve">
<style type="text/css">
	.st0{fill-rule:evenodd;clip-rule:evenodd;fill:#3F3F3F;}
	.st1{fill-rule:evenodd;clip-rule:evenodd;fill:#FFFFFF;}
</style>
<g>
	<rect class="st0" width="400" height="200"/>
	<path class="st1" d="M50,103.8h53.7V50H50L50,103.8L50,103.8z M87.2,87.2H66.5V66.6h20.7V87.2z"/>
	<rect x="120.3" y="66.6" class="st1" width="20.7" height="20.7"/>
	<path class="st1" d="M157.5,50h30c11,0,16,7.3,16,14c0,4.8-1.9,7.9-6.8,10.8c6.3,2.3,9.6,6.5,9.6,13c0,7.7-5.6,15.9-18.9,15.9h-30
		L157.5,50z M173.8,91.7h10.8c3.8,0,5.6-2.7,5.6-5.2c0,1.1,0.5-4.4-5-4.4h-11.4L173.8,91.7L173.8,91.7z M173.9,71.2h8.7
		c4,0,5.5-1.9,5.5-4.6c0-0.6-0.2-4.1-4.4-4.1h-9.8V71.2z"/>
	<path class="st1" d="M223.3,50h17.3l19.7,53.7h-17.8l-2.6-8h-16.6l-2.2,8h-17.7L223.3,50z M231.2,66l-4.6,17.9h9.7L231.2,66z"/>
	<path class="st1" d="M287.9,66h16.5c0-9.1-6.8-17.6-23.1-17.6c-17.8,0-23.4,9.8-23.4,17.1c0,11.6,14.3,14.7,14.7,14.9
		c2.1,0.7,10.9,3.1,13.1,3.8c1.9,0.7,3.8,2.2,3.8,4.3c0,3.2-3.8,4.6-6.8,4.6c-2,0-8.7-0.7-8.7-7.8h-17.1c0,9.5,6.5,20.1,24.8,20.1
		c20.1,0,24.3-12,24.3-18.4c0-5.2-3-11-9.7-13.7c-4.1-1.6-10.9-3.1-14.3-4.1c-1.7-0.5-7.4-1.6-7.4-5.1c0-4.4,7.4-3.9,6.3-3.9
		C284.1,60,287.9,61.9,287.9,66L287.9,66z"/>
	<path class="st1" d="M308.7,50H350v14.2h-24.8v9.5h22v13.6h-22.1v16.6h-16.5L308.7,50z"/>
	<path class="st1" d="M71.4,146.3L71.4,146.3l-5.2-19.5H63l-5.2,19.5h-0.2v-0.1l-4.5-19.4h-3l6,23.1h3.1l5.4-19.6h0.2v0.1L70,150
		h3.1l6.2-23.1h-2.9l-4.8,19.5H71.4z"/>
	<path class="st1" d="M93,136.2c-0.6-0.9-1.4-1.7-2.4-2.3c-0.9-0.6-2.2-0.9-3.7-0.9c-1.1,0-2.2,0.3-3.2,0.7c-0.9,0.4-1.8,1-2.5,1.8
		c-0.7,0.8-1.3,1.7-1.6,2.7c-0.4,1-0.6,2.2-0.6,3.5c0.1,1.3,0.3,2.5,0.6,3.5c0.3,1.1,0.9,2,1.5,2.8c0.7,0.8,1.5,1.4,2.5,1.8
		c0.9,0.4,2.1,0.7,3.5,0.7c1.9,0,3.5-0.5,4.7-1.5c1.2-0.9,2-2.3,2.4-4.1h-2.6c-0.3,1.1-0.8,2-1.5,2.5c-0.8,0.5-1.8,0.9-3,0.9
		c-0.9,0-1.7-0.2-2.4-0.4c-0.7-0.3-1.3-0.8-1.7-1.3c-0.4-0.5-0.8-1.1-0.9-1.8c-0.2-0.7-0.3-1.4-0.3-2.1v-0.1h12.6
		c0-0.9-0.1-2-0.3-3.2C94,138.2,93.6,137.1,93,136.2L93,136.2z M81.9,140.2L81.9,140.2c0.1-0.8,0.2-1.4,0.4-2c0.3-0.6,0.6-1.1,1-1.5
		s0.9-0.8,1.5-1c0.6-0.3,1.3-0.4,2-0.4c0.7,0,1.4,0.1,2,0.4c0.6,0.3,1.1,0.6,1.5,1c0.4,0.4,0.8,0.9,1,1.5c0.3,0.6,0.4,1.2,0.4,1.9
		v0.1H81.9z"/>
	<path class="st1" d="M114,148.2c-0.9,0-1.6-0.2-2.3-0.5c-0.7-0.3-1.2-0.9-1.5-1.5c-0.4-0.6-0.7-1.3-0.9-2c-0.2-0.8-0.3-1.5-0.3-2.3
		c0-0.9,0.1-1.7,0.3-2.5c0.2-0.8,0.5-1.5,0.9-2.1c0.4-0.6,0.9-1.1,1.6-1.5c0.7-0.3,1.5-0.6,2.6-0.6c1.2,0,2.1,0.3,2.9,0.9
		c0.7,0.6,1.2,1.5,1.4,2.5h2.7c-0.1-0.9-0.3-1.8-0.8-2.5s-0.9-1.3-1.5-1.8c-0.6-0.5-1.4-0.9-2.2-1c-0.9-0.3-1.7-0.3-2.6-0.3
		c-1.3,0-2.5,0.3-3.5,0.7c-1,0.4-1.8,1.1-2.5,1.9c-0.7,0.8-1.1,1.8-1.5,2.8c-0.3,1.1-0.5,2.3-0.5,3.5s0.2,2.4,0.5,3.4
		c0.3,1,0.9,2,1.5,2.7c0.7,0.8,1.5,1.4,2.5,1.7c0.9,0.4,2.1,0.6,3.4,0.6c2.1,0,3.8-0.6,5-1.7s2-2.6,2.3-4.7h-2.6
		c-0.2,1.3-0.7,2.3-1.5,3C116.5,147.8,115.4,148.2,114,148.2L114,148.2z"/>
	<path class="st1" d="M129.9,133.8c-0.9,0.7-1.9,1.6-2.6,3v0.1h-0.1v-3.6h-2.5v16.7h2.6v-7.4c0-1.1,0.1-2,0.3-2.9
		c0.3-0.9,0.6-1.6,1-2.1c0.5-0.6,1.1-1,2-1.4c0.8-0.3,1.7-0.4,2.8-0.4v-2.7c-0.1,0-0.1,0-0.2,0C132,132.9,130.9,133.2,129.9,133.8
		L129.9,133.8z"/>
	<path class="st1" d="M147.8,136.2c-0.6-0.9-1.4-1.7-2.4-2.3c-0.9-0.6-2.2-0.9-3.7-0.9c-1.1,0-2.2,0.3-3.2,0.7
		c-0.9,0.4-1.8,1-2.5,1.8c-0.7,0.8-1.3,1.7-1.6,2.7c-0.4,1-0.6,2.2-0.6,3.5s0.3,2.5,0.6,3.5c0.3,1.1,0.9,2,1.5,2.8
		c0.7,0.8,1.5,1.4,2.5,1.8c0.9,0.4,2.1,0.7,3.5,0.7c1.9,0,3.5-0.5,4.7-1.5c1.2-0.9,2-2.3,2.4-4.1h-2.6c-0.3,1.1-0.8,2-1.5,2.5
		c-0.8,0.5-1.8,0.9-3,0.9c-0.9,0-1.7-0.2-2.4-0.4c-0.7-0.3-1.3-0.8-1.7-1.3c-0.4-0.5-0.8-1.1-0.9-1.8c-0.2-0.7-0.3-1.4-0.3-2.1v-0.1
		h12.6c0-0.9-0.1-2-0.3-3.2C148.7,138.2,148.4,137.1,147.8,136.2L147.8,136.2z M136.6,140.2L136.6,140.2c0.1-0.8,0.2-1.4,0.4-2
		s0.6-1.1,1-1.5s0.9-0.8,1.5-1c0.6-0.3,1.3-0.4,2-0.4c0.7,0,1.4,0.1,2,0.4c0.6,0.3,1.1,0.6,1.5,1s0.8,0.9,1,1.5s0.4,1.2,0.4,1.9v0.1
		H136.6z"/>
	<path class="st1" d="M166.1,147.6c-0.1-0.3-0.1-0.8-0.1-1.5v-8.7c0-0.9-0.2-1.7-0.5-2.3c-0.3-0.6-0.9-1-1.5-1.4
		c-0.6-0.3-1.3-0.5-2-0.7c-1.7-0.3-3.4-0.3-5,0.2c-0.9,0.2-1.6,0.5-2.2,0.9c-0.7,0.4-1.2,1-1.5,1.7c-0.3,0.7-0.6,1.5-0.6,2.5h2.6
		c0.1-1.2,0.5-2,1.3-2.6c0.8-0.4,1.8-0.7,3-0.7c0.4,0,0.9,0,1.4,0.1c0.4,0.1,0.9,0.2,1.3,0.4c0.3,0.2,0.7,0.5,0.9,0.9
		c0.3,0.3,0.3,0.9,0.3,1.5c0,0.5-0.2,0.9-0.5,1.3c-0.3,0.3-0.8,0.5-1.3,0.7s-1.1,0.3-1.8,0.3c-0.7,0.1-1.4,0.2-2.1,0.3
		c-0.7,0.1-1.5,0.3-2.1,0.5c-0.7,0.2-1.3,0.5-1.8,0.9c-0.5,0.3-0.9,0.9-1.3,1.5c-0.3,0.6-0.5,1.4-0.5,2.3c0,0.9,0.2,1.5,0.4,2.1
		s0.7,1.1,1.2,1.5c0.5,0.3,1.1,0.7,1.8,0.8c0.7,0.2,1.4,0.3,2.1,0.3c1.2,0,2.2-0.2,3.2-0.6c1-0.4,1.9-1,2.6-2l0.2-0.2v0.3
		c0,0.9,0.2,1.5,0.6,1.9c0.4,0.3,0.9,0.6,1.6,0.6c0.8,0,1.5-0.2,1.9-0.4v-2c-0.3,0.1-0.5,0.2-0.8,0.2
		C166.5,148.2,166.2,148,166.1,147.6L166.1,147.6z M163.4,144.3c0,0.4-0.1,0.9-0.3,1.3c-0.2,0.4-0.5,0.9-0.9,1.3s-0.9,0.7-1.6,0.9
		c-0.7,0.3-1.5,0.3-2.4,0.3c-0.4,0-0.9-0.1-1.3-0.2s-0.8-0.3-1.1-0.4s-0.6-0.5-0.8-0.8c-0.2-0.3-0.3-0.8-0.3-1.2
		c0-0.7,0.2-1.3,0.5-1.7c0.3-0.4,0.8-0.8,1.3-0.9c0.5-0.3,1.1-0.4,1.7-0.5c0.6-0.1,1.2-0.2,1.9-0.3c0.6-0.1,1.2-0.2,1.8-0.3
		c0.5-0.1,1-0.3,1.4-0.6l0.2-0.1L163.4,144.3L163.4,144.3z"/>
	<path class="st1" d="M193.3,136.2c-0.6-0.9-1.4-1.7-2.4-2.3c-0.9-0.6-2.2-0.9-3.7-0.9c-1.1,0-2.2,0.3-3.2,0.7
		c-0.9,0.4-1.8,1-2.5,1.8c-0.7,0.8-1.3,1.7-1.6,2.7c-0.4,1-0.6,2.2-0.6,3.5c0.1,1.3,0.3,2.5,0.6,3.5c0.3,1.1,0.9,2,1.5,2.8
		c0.7,0.8,1.5,1.4,2.5,1.8c0.9,0.4,2.1,0.7,3.5,0.7c1.9,0,3.5-0.5,4.7-1.5c1.2-0.9,2-2.3,2.4-4.1h-2.6c-0.3,1.1-0.8,2-1.5,2.5
		s-1.8,0.9-2.9,0.9c-0.9,0-1.7-0.2-2.4-0.4c-0.7-0.3-1.3-0.8-1.7-1.3c-0.4-0.5-0.8-1.1-0.9-1.8c-0.2-0.7-0.3-1.4-0.3-2.1v-0.1H195
		c0-1-0.1-2-0.3-3.2C194.4,138.2,193.9,137.1,193.3,136.2L193.3,136.2z M182.2,140.2L182.2,140.2c0.1-0.8,0.2-1.4,0.4-2
		s0.6-1.1,1-1.5s0.9-0.8,1.5-1c0.6-0.3,1.3-0.4,2-0.4s1.4,0.1,2,0.4c0.6,0.3,1.1,0.6,1.5,1s0.8,0.9,1,1.5c0.3,0.6,0.4,1.2,0.4,1.9
		v0.1H182.2z"/>
	<path class="st1" d="M214.4,148.2c-0.9,0-1.6-0.2-2.3-0.5c-0.6-0.3-1.2-0.9-1.5-1.5c-0.4-0.6-0.7-1.3-0.9-2s-0.3-1.5-0.3-2.3
		c0-0.9,0.1-1.7,0.3-2.5c0.2-0.8,0.5-1.5,0.9-2.1c0.4-0.6,0.9-1.1,1.6-1.5c0.7-0.3,1.5-0.6,2.6-0.6c1.2,0,2.1,0.3,2.9,0.9
		c0.7,0.6,1.2,1.5,1.4,2.5h2.7c-0.1-0.9-0.3-1.8-0.8-2.5s-0.9-1.3-1.5-1.8c-0.6-0.5-1.4-0.9-2.2-1c-0.9-0.3-1.7-0.3-2.6-0.3
		c-1.3,0-2.5,0.3-3.5,0.7s-1.8,1.1-2.5,1.9c-0.7,0.8-1.1,1.8-1.5,2.8c-0.3,1.1-0.5,2.3-0.5,3.5c0,1.3,0.2,2.4,0.5,3.4
		c0.3,1,0.9,2,1.5,2.7c0.7,0.8,1.5,1.4,2.5,1.7c0.9,0.4,2.1,0.6,3.4,0.6c2.1,0,3.8-0.6,5-1.7c1.2-1.1,2-2.6,2.3-4.7h-2.6
		c-0.2,1.3-0.7,2.3-1.5,3C216.9,147.8,215.9,148.2,214.4,148.2L214.4,148.2z"/>
	<path class="st1" d="M237.9,134.6c-0.4-0.5-1-0.9-1.8-1.3c-0.8-0.3-1.6-0.4-2.7-0.4c-0.5,0-1,0.1-1.5,0.2c-0.5,0.1-1,0.3-1.5,0.5
		c-0.5,0.3-0.9,0.5-1.3,0.9c-0.3,0.3-0.8,0.8-1,1.3v0.1h-0.1v-9h-2.6V150h2.6v-9.5c0-0.8,0.1-1.5,0.3-2.1c0.2-0.7,0.5-1.2,0.9-1.7
		c0.4-0.5,0.9-0.9,1.6-1.1c0.6-0.3,1.4-0.4,2.2-0.4c1.1,0,2,0.3,2.6,0.9c0.6,0.6,0.9,1.5,0.9,2.6V150h2.6v-11c0-0.9-0.1-1.7-0.3-2.5
		C238.7,135.8,238.3,135.1,237.9,134.6L237.9,134.6z"/>
	<path class="st1" d="M256.6,136.2c-0.6-0.9-1.4-1.7-2.4-2.3c-0.9-0.6-2.2-0.9-3.7-0.9c-1.1,0-2.2,0.3-3.2,0.7
		c-0.9,0.4-1.8,1-2.5,1.8c-0.7,0.8-1.3,1.7-1.6,2.7c-0.3,1-0.6,2.2-0.6,3.5s0.3,2.5,0.6,3.5c0.3,1.1,0.9,2,1.5,2.8
		c0.7,0.8,1.5,1.4,2.5,1.8c0.9,0.4,2.1,0.7,3.5,0.7c1.9,0,3.5-0.5,4.7-1.5c1.2-0.9,2-2.3,2.4-4.1h-2.6c-0.3,1.1-0.8,2-1.5,2.5
		c-0.8,0.5-1.8,0.9-3,0.9c-0.9,0-1.7-0.2-2.4-0.4c-0.7-0.3-1.3-0.8-1.7-1.3c-0.4-0.5-0.8-1.1-0.9-1.8c-0.2-0.7-0.3-1.4-0.3-2.1v-0.1
		h12.6c0-1-0.1-2-0.3-3.2C257.5,138.2,257.1,137.1,256.6,136.2L256.6,136.2z M245.4,140.2L245.4,140.2c0.1-0.8,0.2-1.4,0.4-2
		s0.6-1.1,1-1.5s0.9-0.8,1.5-1c0.6-0.3,1.3-0.4,2-0.4c0.7,0,1.4,0.1,2,0.4c0.6,0.3,1.1,0.6,1.5,1s0.8,0.9,1,1.5
		c0.3,0.6,0.4,1.2,0.4,1.9v0.1H245.4z"/>
	<path class="st1" d="M283.4,134c-0.5-0.3-1-0.7-1.7-0.9c-0.7-0.2-1.5-0.3-2.3-0.3c-1.1,0-2.1,0.3-3,0.8c-0.9,0.5-1.6,1.2-2.2,2
		l-0.1,0.2l-0.1-0.2c-0.3-1-0.9-1.7-1.8-2.1s-1.8-0.7-2.8-0.7c-2.3,0-4.3,0.9-5.5,2.8l0,0h-0.1v-2.5h-2.5V150h2.6v-10.4
		c0-0.3,0.1-0.8,0.3-1.3c0.2-0.5,0.4-1,0.8-1.5c0.3-0.4,0.9-0.9,1.5-1.2c0.6-0.3,1.3-0.5,2.1-0.5c0.7,0,1.2,0.1,1.6,0.3
		c0.4,0.2,0.8,0.4,1,0.9c0.3,0.3,0.4,0.8,0.5,1.2s0.2,0.9,0.2,1.5v11h2.6v-10.4c0-1.4,0.4-2.4,1.2-3.2c0.8-0.8,1.9-1.2,3.3-1.2
		c0.7,0,1.3,0.1,1.7,0.3c0.4,0.2,0.8,0.5,1,0.9c0.3,0.3,0.4,0.8,0.5,1.2c0.1,0.4,0.2,0.9,0.2,1.5v11h2.6v-12.3
		c0-0.9-0.2-1.6-0.4-2.2C284.3,135,283.9,134.4,283.4,134L283.4,134z"/>
	<path class="st1" d="M292.1,130.1h-2.6v-3.2h2.6V130.1z M292.1,133.3h-2.6v16.7h2.6V133.3z"/>
	<path class="st1" d="M307.6,149.3c0.7-0.4,1.2-0.9,1.6-1.6c0.4-0.7,0.6-1.5,0.6-2.5c0-0.8-0.2-1.5-0.4-2c-0.3-0.5-0.7-0.9-1.2-1.4
		c-0.5-0.3-1.1-0.7-1.7-0.9c-0.7-0.3-1.4-0.4-2-0.5c-0.7-0.2-1.3-0.3-2-0.4c-0.7-0.2-1.3-0.3-1.8-0.5c-0.5-0.2-0.9-0.5-1.3-0.8
		c-0.3-0.3-0.5-0.8-0.5-1.3c0-0.4,0.1-0.9,0.3-1.1s0.5-0.5,0.9-0.7s0.8-0.3,1.2-0.3c0.9-0.2,1.8-0.2,2.6,0.1
		c0.4,0.1,0.9,0.3,1.3,0.5c0.3,0.3,0.7,0.5,0.9,0.9c0.3,0.3,0.3,0.8,0.4,1.3h2.6c-0.1-0.9-0.3-1.8-0.6-2.5c-0.3-0.7-0.9-1.2-1.5-1.6
		s-1.3-0.7-2.1-0.9c-0.8-0.2-1.7-0.3-2.6-0.3c-0.8,0-1.5,0.1-2.2,0.3c-0.8,0.2-1.5,0.4-2,0.9c-0.6,0.3-1.1,0.9-1.5,1.5
		c-0.3,0.6-0.6,1.3-0.6,2.1c0,1,0.3,1.9,0.8,2.5c0.5,0.6,1.2,1,2,1.4c0.8,0.3,1.7,0.6,2.6,0.8c0.9,0.2,1.9,0.4,2.6,0.6
		c0.9,0.3,1.5,0.5,2,0.9c0.6,0.4,0.9,0.9,0.9,1.7c0,0.5-0.2,1-0.4,1.4c-0.3,0.3-0.6,0.6-1,0.8c-0.4,0.2-0.9,0.3-1.4,0.3
		c-1.1,0.2-2.1,0.1-3.1-0.1c-0.5-0.1-1-0.3-1.5-0.5c-0.4-0.3-0.8-0.6-1-1c-0.3-0.4-0.4-0.9-0.4-1.5h-2.6c0.1,1,0.3,1.9,0.6,2.6
		c0.4,0.7,0.9,1.3,1.5,1.7c0.7,0.4,1.4,0.8,2.2,0.9c1.6,0.3,3.4,0.4,5.2,0.1C306.2,150,307,149.7,307.6,149.3L307.6,149.3z"/>
	<path class="st1" d="M316.9,128.2h-2.6v5h-2.7v2.3h2.7v10.8c0,0.8,0.1,1.4,0.3,1.9c0.2,0.4,0.3,0.9,0.7,1.1
		c0.3,0.3,0.7,0.4,1.2,0.5c0.5,0.1,1.1,0.2,1.8,0.2h2v-2.3h-1.1c-0.4,0-0.8,0-1.1-0.1c-0.3,0-0.5-0.1-0.7-0.3
		c-0.2-0.1-0.3-0.3-0.3-0.5c-0.1-0.2-0.1-0.5-0.1-0.8v-10.6h3.5v-2.3h-3.5L316.9,128.2L316.9,128.2z"/>
	<path class="st1" d="M174.1,128.2h-2.6v5h-2.7v2.3h2.7v10.8c0,0.8,0.1,1.4,0.3,1.9c0.2,0.4,0.3,0.9,0.7,1.1
		c0.3,0.3,0.7,0.4,1.2,0.5c0.5,0.1,1.1,0.2,1.8,0.2h2v-2.3h-1.2c-0.4,0-0.8,0-1.1-0.1c-0.3,0-0.5-0.1-0.7-0.3
		c-0.2-0.1-0.3-0.3-0.3-0.5c-0.1-0.2-0.1-0.5-0.1-0.8v-10.6h3.5v-2.3h-3.5L174.1,128.2L174.1,128.2z"/>
	<path class="st1" d="M326.8,137L326.8,137L326.8,137l-0.1-3.7h-2.5v16.7h2.6v-7.3c0-1.1,0.1-2,0.3-2.9s0.6-1.6,1-2.1
		c0.5-0.6,1.1-1,2-1.4c0.8-0.3,1.7-0.4,2.8-0.4v-2.9c-1.5,0-2.6,0.3-3.6,0.9C328.5,134.6,327.5,135.6,326.8,137L326.8,137z"/>
	<path class="st1" d="M341.6,154.4c0.3-0.6,0.6-1.3,0.9-2l7.3-19h-2.7l-4.8,13.8h-0.2v-0.1l-5-13.7h-2.9l6.7,16.7l0,0l-1.1,2.8
		c-0.3,0.5-0.6,0.9-0.9,1.2c-0.3,0.3-0.9,0.4-1.5,0.4c-0.3,0-0.6-0.1-0.9-0.2c-0.3-0.1-0.4-0.2-0.7-0.3v2.4c0.3,0.1,0.6,0.2,0.9,0.2
		c0.3,0.1,0.7,0.1,0.9,0.1c0.6,0,1.2-0.1,1.6-0.3c0.4-0.2,0.9-0.4,1.2-0.8C341,155.4,341.4,154.9,341.6,154.4L341.6,154.4z"/>
</g>
</svg>
