<?xml version="1.0" encoding="utf-8"?>
<!-- Generator: Adobe Illustrator 26.0.3, SVG Export Plug-In . SVG Version: 6.00 Build 0)  -->
<svg version="1.1" id="Layer_1" xmlns="http://www.w3.org/2000/svg" xmlns:xlink="http://www.w3.org/1999/xlink" x="0px" y="0px"
	 viewBox="0 0 260 68" style="enable-background:new 0 0 260 68;" xml:space="preserve">
<style type="text/css">
	.st0{fill-rule:evenodd;clip-rule:evenodd;fill:#3F3F3F;}
</style>
<path class="st0" d="M0,63.9c23.3-3.7,50.5-6.9,61.2-8.2c0.8-1.2,9.2-12.5,12.1-16.1c0.9-1.1,0.4-0.9-0.4-0.2
	c-1.8,1.4-3.3,2.8-3.9,3.3c-0.8,0.5-1.6,1.1-2.3,1.6c-2,1.4-5.9,2.5-5.8-1.2c0.1-2.2,1.2-4.8,3-6.9c-0.8,0.1-2.1,0.3-2.1,0.1
	c-1.5,2.2-4.4,6.8-8.8,9.1c-2.1,1.1-4.9,2.3-6.9,0.5c-1.1-1-1.2-2.9-1-4.8c1.8-4.7,5.8-8,8.4-10.7c-0.9-0.9-1-1-1.3-2.1
	c-5,4.8-20,23.4-27.4,21.1c-1-0.7-1.4-1.4-1.3-2.5c0.1-1.6,1.1-3.6,1.9-4.9c4.5-6.4,22.7-24.5,25.6-29.8c0.5-0.7-0.1-0.8-0.1-1
	c-4.2,0.2-29.5,26.9-36.3,30l2.9-6.6C24.3,33.4,45.8,9.2,53,9.1c2.3,0.4,1.7,1.9,0.8,4.1c-1.6,4.1-29.3,31.6-27.7,34.5
	c3.8,3.1,23-17.7,26-22.1c0.2-2.3,3.1-9.7,5.6-10.8c1.7-0.8,2.4,1.1,2.1,2.5c-1,4.3-5,6.2-6.4,9.7c-0.4,1.3,0.2,2.1,1.6,1.5
	c1.5-0.9,3-1.3,4.5-1.1c1.9,0,4.4,1.8,4,4.1c-0.3,0.6-1.1,2.4-1.1,3.1c0.9,0.2,0,0.4,2.6-0.5c3.5-5.1,9.6-13.1,13.1-18.2
	c1.5-2.2,4.6-5.9,7.3-5.7c2.5,0.2,1.6,2.7,1,3.8c-2.8,4.6-8.3,10.7-13.8,14.8c-4,3-7,8.7-9,13.6c0,1.2,1.3,1.2,2.2,0.6
	c3.3-2.1,9-7.3,12.4-10.7c0-0.4-0.5-1.3-0.5-1.6c-0.6-2-0.5-3.9,1.5-4.8c1.5-0.5,2.6,0,3.8,0.7C87,21.5,94.7,8.8,100.8,5.8
	c1-0.5,1.9-0.3,1.8,1c-1.6,3.1-6,8.6-10.3,11.5c-3.2,3.5-7.3,9-9.3,13.5c0.8,0.1,0.7,0,1.7,0.2c1.6-1.7,5.3-6,9.2-6.6
	c2.9-0.4,4.3,1.5,4.2,2.5c1.1-1.2,0.8-0.8,1.4-1.9l3.8-0.1c-2.9,4.4-7.3,10.4-10.6,14.5c-1.1,1.1-0.2,1.7,1.4,1.1
	c1.8-0.6,4.3-2.7,5.7-3.8c0.8-2,3.5-5.7,6-5.5c0.9-1.7,4.3-4.8,5.9-6.5c0.7-1.4,1.2-3.3,2.9-3.3c0.7,0.4,0.7,0.9,0.5,1.4
	c-0.2,0.4-0.8,0.5-1.1,1c-0.3,0.5-0.6,1.3-0.7,2c0.7,1,1.2,3.2,0.7,5.6c0.6-0.2,2.2-0.4,3.3-0.6c2.5-5.7,6.5-11.9,13.3-13.1
	c-2.8-8.2,6.8-16.2,16.5-12.9c0.8-0.7,3.4-1.1,4.5-1.1c1.4,0,1.3,0.4-0.1,0.7c-1.1,0.2-3,1.1-3.1,1.6c0.8,1.7,0.3,3.1-0.4,4.5
	c-1,2.1-4,3.9-6.1,3.2c-1.9-0.6-2-3.4-0.9-4.8c1-1.3,2.6-2.3,3.7-2.9c0-0.2-1-0.4-1.4-0.3c-3-0.5-11.8,5.5-11.3,11.7
	c0.9-0.1,3.3-1.7,6-0.6c0.9,0.6,1,1.4,0.4,2.3c-1.3,1.8-5.8,2.5-7.2,0.6c-5.4,2.8-10.7,9.1-11.7,15.6c-0.5,4.5,3.7,4.1,7.2,1.6
	c4.5-4,8.6-9.6,9.4-11.8c0.5-1.4-0.3-1.9-1.5-1.5c-4.6,2-9.6,8.5-10.4,11.3c-1.2,0-1-0.7-0.6-1.7c1.8-4.5,5.1-7.6,8.1-9.8
	c1-0.8,3.1-2.1,4.8-1.6c1.9,0.5,2.1,2.3,1.8,4c-0.1,0.4-0.2,0.7-0.4,1.1c0.7-0.1,1.6-0.4,1.9-0.4c1.4-1.3,3.2-4.4,3.9-5.6h3.1
	c-0.4,0.9-0.6,1.3-1,2.2c-0.2,0.4-0.2,0.3,0.2,0.1c0.7-0.6,2.7-1.8,4.3-2.1c3-0.6,3.3,1,2.3,3.8c-1.4,3.8-4.5,6.4-6.6,9.8
	c-0.9,1.5-0.2,2,1.2,1.2c1.9-1.4,3-1.9,5.2-4.3c2.7-5,4.6-9.5,11-11.5c1.3-0.4,4.1-1.1,5.6,0.9c0.4-0.3,0.5-0.9,0.8-1.3h3.7
	c-2.3,3.5-6.6,8.6-9,12.4c0.7,0,2.1-1.1,2.9-1.4c1.5-0.5,3.4-1.8,5.1-3.5c1.9-3.6,4.9-6.6,8.3-7.8c3.4-1.1,5.5,0.7,3.1,4.1
	c-1.9,2.8-4.6,3.4-6.9,4.1c-0.9,0.2-2.4,1-3,1.7c-1.2,1.5-2.7,3.1-3,4.9c0,2.1,4.3,0.2,5.1-0.4c2.8-1.6,5.1-3.7,7.9-5.6
	c2.6-2.7,5.2-6.3,7.5-9.8c4.1-6.4,9.9-14.6,15.8-18.9c1.7-1.3,2.1,0.5,1.8,2.6C207.9,8.9,199,16,195.4,19.5
	c-1.3,1.6-1.2,1.6-2.4,3.2c-2.3,3-5.1,6.7-7.3,10c-1.5,2.3,0,3.3,2.1,1.8c4.2-2.7,11.7-11.7,15.5-17l3.1-0.1c0.1,0.4-1,2.1-1.2,2.6
	c1.9-0.8,2.9-1.8,5-2.4c2-0.5,2.9,1.2,2.4,3c1.2-1,2.2-2.4,3.5-3c1.7-0.9,4-0.1,4,2.1c0,0.7-0.3,1.5-0.5,2
	c-1.6,3.3-5.4,6.7-7.3,10.1c-0.6,1.3,0.3,1.7,1.1,1c2.6-2.1,5.6-5.8,7-6.9c2.8-4.7,5.7-7.5,11.2-9.9c0.9-0.4,1.5-0.5,2.4-0.5
	c0.4,0,0.7,0,1,0c1.6,0.2,1.7,2.3,2.1,2.3c0.9-1,1.9-2.3,1.7-2.3l3.5-0.1c0.4,0-10.2,12.9-11.2,14.4c-0.7,1-0.3,1.9,0.7,1.5
	c5.9-2.7,13.3-11.7,16.8-16.5l3.4-0.1c-0.6,1-1.9,2.8-2.5,3.6c-0.9,1.2-0.9,1.5,0.5,0.3c1.5-1.3,2.7-2.4,4.3-3.4
	c2.9-1.6,5.9-0.5,4.9,2.8c-1.8,3.7-5.1,6.6-7.2,10.1c-0.7,0.7-0.3,1.3,0.7,0.6c1.2-0.8,2.8-1.9,4-2.8c3.2-1.2,3.2,2.3,2.1,3.5
	c-1.7,2-5.7,5-8,6.5c-0.1,0.2,0,0.1,0.2,0.2c2.2,0.8,1.7,3.2,0.2,4.1c-1.4,0.9-3.4,1.3-4.6,1.6c-22.3,3.5-70,5.4-94.4,7.9
	c-0.4,1.1-3,4.1-3.8,4.7c-4.3,3.1-11.3,2.7-13.5,2.8c-1.2-0.1-1.8-0.7-1.6-1.6c0.4-2,2.7-3.4,4.1-4.2C95.2,54.6,47.5,60.2,4.2,68
	L0,63.9z M54.8,22.1c0.6-1,2.2-2.2,2.6-3.7c0.1-0.4,0.3-1.1-0.2-0.7C56.2,18.5,54.6,20.9,54.8,22.1L54.8,22.1z M100.6,8.4
	c0.2-0.3,0.2-0.5-0.4-0.5c-0.8,0.1-5,4.2-6.1,7.2C96.1,13.8,99.2,10.3,100.6,8.4L100.6,8.4z M132.9,19.8c1,0.6,2.6,0.8,3.6,0.1
	c0.3-0.2,0.8-0.7,0.5-1.1c-0.5-0.6-1.8-0.5-2.4-0.2C134.3,18.8,132.9,19.5,132.9,19.8L132.9,19.8z M154,36c0.2,1.2,1.6,1.9,3.1,0.8
	c1.6-1.6,10.2-11.6,10.5-14.6c0.1-1-1.3-1.1-2.3-0.8C161.6,22.2,153.4,32.9,154,36L154,36z M142.9,13.4c-1.8-1.1,0.9-3.9,2.7-5.1
	c0.4-0.3,0.8-0.4,1.1-0.5C149.7,8.9,144,13.9,142.9,13.4L142.9,13.4z M196.9,14.7c1.8-3.1,9.1-11.5,10.3-12.5c0.5-0.3,1-0.7,0.8,0.3
	c0.2,1.6-6.9,9.4-10.6,12.8C196.2,16.6,196,16.4,196.9,14.7L196.9,14.7z M176.5,26.2c-0.3-0.6,3.8-4.4,4.9-4.4
	C183.3,22.8,177.1,27.8,176.5,26.2L176.5,26.2z M222.6,31.6c-1.2,0.3-1.9-1.4-0.9-2.9c1.3-3.1,7.4-10.5,10.5-11.7
	c1.6-0.6,4.1-0.9,3.5,1.4c-1.6,3.7-6.2,9-9.9,11.7C224.8,30.7,223.6,31.3,222.6,31.6L222.6,31.6z M107.7,36.7
	c-0.4,0-2.1,0.2-1.6-1.6c0.8-0.5,1.3-1.5,0.7-2.4c0.7-1.1,3.7-4.4,4.9-4.8c0.2,0.5,0.2,1.2,0.2,1.7c0,0.9-0.1,2-0.7,3.1
	C110.4,34.1,109.2,36.2,107.7,36.7L107.7,36.7z M101.3,38.6c0.2-1,1.1-2.5,2-2.9c0.2,0.5,1.4,0.7,1.7,0.4c0.4,0.3-0.2,2,2.9,2
	c-0.8,0.9-2.6,2.9-3.6,3.3C102.5,42.1,100.8,40.4,101.3,38.6L101.3,38.6z M154.3,46.7c1.6-2.8,6.2-9,9.4-12.1c1.5-1,3.8-1.9,5.9-2.9
	c-0.1,0.2-0.2,0.3-0.3,0.5c-0.6,1.2-0.9,2.9,0,4c1,1.1,2.8,0.8,4.2,0.6c2.9-0.5,8.8-5.2,10-5.6c-0.7,2.7-0.8,5.7,3,4.7
	c1.8-0.4,4.5-2.8,6-4c-0.5,1.2-1,1.7-1.6,2.9l3.5-0.2c1.7-3.8,9.7-15.5,14.2-15.7c3.5-0.4-9.3,12.7-9.6,15.4l3.7-0.1
	c0.7-2.2,9.5-13.6,12.7-15.3c1-0.5,2,0.2,1.4,1c-1,2.1-8.5,10-7.5,13.1c1.1,2.1,4.6,1,5.8-0.8c1.5-1.4,2.9-3.5,4.1-4.7
	c-0.1,0.2-0.1,1-0.3,1.8c-0.6,4,3,3.9,5.9,2.6c1.1-0.5,3.5-2.7,3.4-2.5c-0.3,0.4-0.4,2.3-0.2,2.8c0.5,1.1,2.5,0.6,3.2,0.2
	c2.1-1.1,5.5-4,6.8-5.1c-0.4,1.3-3.3,4.4-3,4.4l4.1-0.3c2.6-3.8,6.3-8.2,10.1-11.5c1.5-1.3,3.4-2.7,4.5-3.3c1.4-1.2,2.5-0.2,1.3,1.2
	c-2.6,3.1-8.7,8.9-6,12.3c0.8,0.4,0.9,0.5,1.8,0.5c1.8-0.4,3.7-2.1,5.3-2.8c0.9-0.4,0.8,0.4,0.3,1.1c-1.5,1.7-5.8,4.5-7.4,6
	c-0.3-0.2-3.6-0.2-2.8,2.1c0.7,1.1,2.3,0.6,3.4,0.1c0.7,0,1.2,0.4,0.9,1.3c-0.4,0.5-0.8,0.8-1.3,0.9
	C235.8,42.8,153.8,46.8,154.3,46.7L154.3,46.7z M154,41.3l-3.8,5.7l-6,0.6C146.4,46.4,151.8,42.6,154,41.3L154,41.3z M137.2,53
	c0.9-0.7,1.8-1.5,3-2.1l8.1-0.9c-0.4,0.9-2.3,2.7-3.1,3.4c-2.2,0.9-3.6,1.6-6.2,1.9C135.7,55.7,133.5,55.6,137.2,53L137.2,53z
	 M65.8,55.1c0.7-2.5,13.3-18.5,14.6-20c0.4-0.5,0.9-1.1,1.6-1.4c0.4-0.2,0.4-0.4,1.4,0c-0.6,1-2.5,4-2.5,5.6c0,2,0.4,3.2,1.4,3.8
	c3,1.6,5.3-1.7,7.6-2.9c0,0.3-0.4,1.7,0.1,2.5c2.2,2.4,7.4-1.7,9.9-3.6c0.1,0-0.4,2.9,2.2,3.4c1.4,0.3,3.3,0,4.6-0.7
	c3.1-1.6,5.2-5.6,7.2-8.3c0.8-0.1,2.4-0.6,3.3-0.4c-1.3,6.4,3.7,8.7,7.9,6.9c1.9-0.8,3.9-2.2,5.5-3.5c3-2.4,5-5,7.2-7.9
	c0.4-0.1,0.6-0.2,1.1-0.1c-0.3,1.4-5.2,8.7-5.9,10.1l3.5-0.1c0.9-1.5,4.7-8.4,8.5-12.7c1-1,3-2.1,4.3-2.5c1.3-0.4,1.2,0.6,0.6,1.5
	c-0.7,0.9-1.6,1.9-2.1,2.7c-1.8,2.2-3.9,4.5-4.8,7.6c0.1,8,9.2-1.8,9.7-1.9c-0.4,2.8,0.4,4.7,3.7,4.5c-0.3,0.3-0.9,1-1.3,1.4
	c-3.2,2.2-8.4,5.4-13,8.6C117.4,49.3,90.1,52.6,65.8,55.1L65.8,55.1z M84.4,12.5c0.9-0.6,1.3,0.2,0.9,0.8c-2,3.2-7.2,9.6-10.6,11.5
	C75.4,22.8,81.5,14.6,84.4,12.5L84.4,12.5z M79.7,31c-1.5-1.5-0.2-3.7,1.6-2.8C82.1,28.6,80.8,30.6,79.7,31L79.7,31z M84.1,37.7
	c2.9-3.9,5.2-7.2,9.7-10.4c1.4-1,3.4,0,3.1,1.6c-0.5,2.6-4.3,6.7-7.6,10.2C87.2,41.6,80.3,45.2,84.1,37.7L84.1,37.7z M47.6,43.8
	c-1.8-4.5,12.3-17.6,13.5-13.2c-0.7,1.2-2.3,1.6-2.5,3.1c0.2,1,0.7,1.5,1.3,2.2c-1.8,2.8-5.6,7.2-8.6,8.4
	C50.1,45,48.4,45.7,47.6,43.8L47.6,43.8z"/>
</svg>
