<?xml version="1.0" encoding="utf-8"?>
<!-- Generator: Adobe Illustrator 26.0.3, SVG Export Plug-In . SVG Version: 6.00 Build 0)  -->
<svg version="1.1" xmlns="http://www.w3.org/2000/svg" xmlns:xlink="http://www.w3.org/1999/xlink" x="0px" y="0px"
	 viewBox="0 0 48 48" style="enable-background:new 0 0 48 48;" xml:space="preserve">
<style type="text/css">
	.st0{fill:url(#SVGID_1_);}
	.st1{fill:#FFFFFF;}
	.st2{fill:url(#SVGID_00000068678447532629419980000001263904798359386519_);}
	.st3{fill:url(#SVGID_00000126324611983994447730000003999117718869907132_);}
	.st4{fill:#3F3F3F;}
	.st5{fill:url(#SVGID_00000056407923713557096950000004972419291510238869_);}
	.st6{fill:#E5E5E5;}
	.st7{fill:url(#SVGID_00000050626245346022302710000012554843645281760644_);}
	.st8{fill:none;stroke:url(#SVGID_00000096022547233004346690000007673291203837521027_);stroke-width:3;stroke-miterlimit:10;}
	.st9{fill:none;stroke:#FFFFFF;stroke-width:3;stroke-miterlimit:10;}
	.st10{fill:url(#SVGID_00000050658844351870672990000002653249945764555154_);}
	.st11{fill:#7837D1;}
</style>
<g id="Layer_2_copy">
</g>
<g id="Layer_2">
</g>
<g id="Layer_1">
	<g>
		<path class="st1" d="M48,0H0v48h48V0L48,0z M2,45.9V2.1h44v43.9H2L2,45.9z M36.4,16.3H11.6c0,0,0,0,0,0c0,0,0,0,0,0
			c-0.1,0-0.1,0-0.2,0c0,0,0,0,0,0c-0.1,0-0.1,0.1-0.1,0.1c0,0,0,0,0,0c0,0,0,0,0,0c0,0-0.1,0.1-0.1,0.1c0,0,0,0,0,0
			c0,0,0,0.1,0,0.1v15.9c0,0,0,0.1,0,0.1c0,0,0,0,0,0c0,0.1,0,0.1,0.1,0.1c0,0,0,0,0,0c0,0,0,0,0,0c0,0,0,0,0,0c0,0,0,0,0,0
			c0,0,0,0,0.1,0c0,0,0,0,0,0c0.1,0,0.1,0,0.2,0h24.9c0.1,0,0.1,0,0.2,0c0,0,0,0,0,0c0,0,0,0,0.1,0c0,0,0,0,0,0c0,0,0,0,0,0
			c0,0,0,0,0,0c0,0,0,0,0,0c0,0,0.1-0.1,0.1-0.1c0,0,0,0,0,0c0,0,0-0.1,0-0.1V16.7c0,0,0-0.1,0-0.1c0,0,0,0,0,0c0-0.1,0-0.1-0.1-0.1
			c0,0,0,0,0,0c0,0,0,0,0,0c0,0-0.1-0.1-0.1-0.1c0,0,0,0,0,0C36.6,16.3,36.5,16.3,36.4,16.3C36.5,16.3,36.5,16.3,36.4,16.3
			C36.4,16.3,36.4,16.3,36.4,16.3L36.4,16.3z M24,27.5L12.7,17.2h22.5l-7.8,7.1c0,0-0.1,0-0.1,0.1c0,0,0,0,0,0L24,27.5L24,27.5z
			 M36,31.6l-7.6-6.9l7.6-6.9V31.6L36,31.6z M12,31.6V17.7l7.5,6.9L12,31.6L12,31.6z M12.7,32.1l7.5-6.9l3.5,3.2
			c0.1,0.1,0.2,0.1,0.3,0.1s0.2,0,0.3-0.1l3.4-3.1l7.5,6.9H12.7L12.7,32.1z"/>
	</g>
</g>
</svg>
