<?xml version="1.0" encoding="utf-8"?>
<!-- Generator: Adobe Illustrator 26.0.3, SVG Export Plug-In . SVG Version: 6.00 Build 0)  -->
<svg version="1.1" xmlns="http://www.w3.org/2000/svg" xmlns:xlink="http://www.w3.org/1999/xlink" x="0px" y="0px"
	 viewBox="0 0 25.8 16.8" style="enable-background:new 0 0 25.8 16.8;" xml:space="preserve">
<style type="text/css">
	.st0{fill:url(#SVGID_1_);}
	.st1{fill:#FFFFFF;}
	.st2{fill:url(#SVGID_00000000190641327897125010000015864120660098600099_);}
	.st3{fill:url(#SVGID_00000031928865034559453510000014457184959714435516_);}
	.st4{fill:#3F3F3F;}
	.st5{fill:url(#SVGID_00000065068544609536855150000008925453005505457307_);}
	.st6{fill:#E5E5E5;}
	.st7{fill:url(#SVGID_00000178163812844796545110000013052014909527743158_);}
	.st8{fill:none;stroke:url(#SVGID_00000005970936094943172950000000866980217125341089_);stroke-width:3;stroke-miterlimit:10;}
	.st9{fill:none;stroke:#FFFFFF;stroke-width:3;stroke-miterlimit:10;}
	.st10{fill:url(#SVGID_00000057130029181066379190000005841753756031579056_);}
	.st11{fill:#7837D1;}
</style>
<g id="Layer_2_copy">
</g>
<g id="Layer_2">
</g>
<g id="Layer_1">
	<path class="st11" d="M25.7,16.5c0,0,0-0.1,0-0.1V0.4c0,0,0-0.1,0-0.1c0,0,0,0,0,0c0-0.1,0-0.1-0.1-0.1c0,0,0,0,0,0c0,0,0,0,0,0
		c0,0-0.1-0.1-0.1-0.1c0,0,0,0,0,0c0,0-0.1,0-0.2,0c0,0,0,0,0,0c0,0,0,0,0,0H0.4c0,0,0,0,0,0c0,0,0,0,0,0C0.4,0,0.3,0,0.3,0
		c0,0,0,0,0,0c-0.1,0-0.1,0.1-0.1,0.1c0,0,0,0,0,0c0,0,0,0,0,0c0,0-0.1,0.1-0.1,0.1c0,0,0,0,0,0c0,0,0,0.1,0,0.1v15.9
		c0,0,0,0.1,0,0.1c0,0,0,0,0,0c0,0.1,0,0.1,0.1,0.1c0,0,0,0,0,0c0,0,0,0,0,0c0,0,0,0,0,0c0,0,0,0,0,0c0,0,0,0,0.1,0c0,0,0,0,0,0
		c0.1,0,0.1,0,0.2,0h24.9c0.1,0,0.1,0,0.2,0c0,0,0,0,0,0c0,0,0,0,0.1,0c0,0,0,0,0,0c0,0,0,0,0,0c0,0,0,0,0,0c0,0,0,0,0,0
		C25.7,16.6,25.7,16.5,25.7,16.5C25.7,16.5,25.7,16.5,25.7,16.5z M0.9,1.5l7.5,6.9l-7.5,6.9V1.5z M16.4,8C16.3,8,16.3,8.1,16.4,8
		c-0.1,0.1-0.1,0.1-0.1,0.1l-3.4,3.1L1.6,0.9h22.5L16.4,8z M9.1,9l3.5,3.2c0.1,0.1,0.2,0.1,0.3,0.1c0.1,0,0.2,0,0.3-0.1L16.6,9
		l7.5,6.9H1.6L9.1,9z M17.3,8.4l7.6-6.9v13.8L17.3,8.4z"/>
</g>
</svg>
