<?xml version="1.0" encoding="utf-8"?>
<!-- Generator: Adobe Illustrator 26.0.3, SVG Export Plug-In . SVG Version: 6.00 Build 0)  -->
<svg version="1.1" xmlns="http://www.w3.org/2000/svg" xmlns:xlink="http://www.w3.org/1999/xlink" x="0px" y="0px"
	 viewBox="0 0 48 48" style="enable-background:new 0 0 48 48;" xml:space="preserve">
<style type="text/css">
	.st0{fill:url(#SVGID_1_);}
	.st1{fill:#FFFFFF;}
	.st2{fill:url(#SVGID_00000003787427840568890600000002721777584062459265_);}
	.st3{fill:url(#SVGID_00000099659242778329347840000002363584913701710257_);}
	.st4{fill:#3F3F3F;}
	.st5{fill:url(#SVGID_00000042722336987605527890000000087847050495511996_);}
	.st6{fill:#E5E5E5;}
	.st7{fill:url(#SVGID_00000060714983605259571850000009781541994824451252_);}
	.st8{fill:none;stroke:url(#SVGID_00000106142268922882479020000015608633349151510692_);stroke-width:3;stroke-miterlimit:10;}
	.st9{fill:none;stroke:#FFFFFF;stroke-width:3;stroke-miterlimit:10;}
	.st10{fill:url(#SVGID_00000003815564763163447150000012054448133094102913_);}
	.st11{fill:#7837D1;}
</style>
<g id="Layer_2_copy">
</g>
<g id="Layer_2">
</g>
<g id="Layer_1">
	<path class="st1" d="M48,0H0v48h48V0L48,0z M2,45.9V2.1h44v43.9H2L2,45.9z M26.4,37.1h-6.2V24.5h-2.5v-5.4h2.5v-2.4
		c0-2.8,1.5-5.8,5.8-5.8l4.4,0v5.3H27c-0.5,0-0.6,0.4-0.6,0.7v2.1h4l-0.6,5.4h-3.5V37.1z M21.1,36.1h4.2V23.5h3.6l0.4-3.4h-3.9V17
		c0-1.3,0.9-1.7,1.6-1.7h2.3v-3.3l-3.4,0c-4.4,0-4.8,3.7-4.8,4.8v3.4h-2.5v3.4h2.5V36.1z"/>
</g>
</svg>
