<?xml version="1.0" encoding="utf-8"?>
<!-- Generator: Adobe Illustrator 26.0.3, SVG Export Plug-In . SVG Version: 6.00 Build 0)  -->
<svg version="1.1" xmlns="http://www.w3.org/2000/svg" xmlns:xlink="http://www.w3.org/1999/xlink" x="0px" y="0px"
	 viewBox="0 0 11.3 24.5" style="enable-background:new 0 0 11.3 24.5;" xml:space="preserve">
<style type="text/css">
	.st0{fill:url(#SVGID_1_);}
	.st1{fill:#FFFFFF;}
	.st2{fill:url(#SVGID_00000122719068605425330200000005102022117434990734_);}
	.st3{fill:url(#SVGID_00000049199101424301374030000004599806811852330410_);}
	.st4{fill:#3F3F3F;}
	.st5{fill:url(#SVGID_00000064355470079309048870000010826054095087254154_);}
	.st6{fill:#E5E5E5;}
	.st7{fill:url(#SVGID_00000147909417352432904670000014625261100548584857_);}
	.st8{fill:none;stroke:url(#SVGID_00000162318290303005348960000013794469482513874574_);stroke-width:3;stroke-miterlimit:10;}
	.st9{fill:none;stroke:#FFFFFF;stroke-width:3;stroke-miterlimit:10;}
	.st10{fill:url(#SVGID_00000071525524448852710590000010179357458611303604_);}
	.st11{fill:#7837D1;}
</style>
<g id="Layer_2_copy">
</g>
<g id="Layer_2">
</g>
<g id="Layer_1">
	<path class="st11" d="M8.1,24.3H2.3V12.7H0v-5h2.3V5.5c0-2.6,1.4-5.3,5.3-5.3l4,0v4.9H8.6c-0.5,0-0.6,0.4-0.6,0.7v2h3.7l-0.5,5H8.1
		V24.3z M3.2,23.4h3.9V11.8h3.3l0.3-3.2H7.1V5.7c0-1.2,0.8-1.6,1.5-1.6h2.1V1.1l-3.1,0c-4.1,0-4.4,3.4-4.4,4.4v3.1H0.9v3.2h2.3V23.4
		z"/>
</g>
</svg>
