<?xml version="1.0" encoding="utf-8"?>
<!-- Generator: Adobe Illustrator 26.0.3, SVG Export Plug-In . SVG Version: 6.00 Build 0)  -->
<svg version="1.1" id="Layer_1" xmlns="http://www.w3.org/2000/svg" xmlns:xlink="http://www.w3.org/1999/xlink" x="0px" y="0px"
	 viewBox="0 0 48 48" style="enable-background:new 0 0 48 48;" xml:space="preserve">
<style type="text/css">
	.st0{fill:#FFFFFF;}
</style>
<path class="st0" d="M0,0v48h48V0H0z M46,46L2,45.9V2.1h44V46z"/>
<path class="st0" d="M34.9,34.9h-5.2v-7.3c0-1.9-0.1-3.3-1.8-3.3c-1.6,0-2.2,0.9-2.2,3.1v7.4h-5.2V20h5.1v1.1
	c0.8-0.8,2.1-1.5,3.7-1.5c5,0,5.7,3.6,5.7,7.1V34.9z M30.6,34H34v-7.2c0-3.7-0.8-6.2-4.8-6.2c-2,0-3.2,1.1-3.7,2l-0.1,0.2h-0.7
	l-0.1-0.5v-1.5h-3.3V34h3.4v-6.5c0-1.1,0-4,3.1-4c2.7,0,2.7,2.6,2.7,4.2V34z M18.7,34.9h-5.2V20h5.2V34.9z M14.3,34h3.4V20.9h-3.4
	V34z M16,19c-1.6,0-3-1.3-3-3c0-1.6,1.3-3,3-3c1.6,0,3,1.3,3,3C19,17.7,17.7,19,16,19z M16,14C14.9,14,14,14.9,14,16
	c0,1.1,0.9,2.1,2.1,2.1s2.1-0.9,2.1-2.1C18.1,14.9,17.2,14,16,14z"/>
</svg>
