<?xml version="1.0" encoding="utf-8"?>
<!-- Generator: Adobe Illustrator 26.0.3, SVG Export Plug-In . SVG Version: 6.00 Build 0)  -->
<svg version="1.1" id="Layer_1" xmlns="http://www.w3.org/2000/svg" xmlns:xlink="http://www.w3.org/1999/xlink" x="0px" y="0px"
	 viewBox="0 0 20.4 20.4" style="enable-background:new 0 0 20.4 20.4;" xml:space="preserve">
<style type="text/css">
	.st0{fill:#7837D1;}
</style>
<g id="Layer_2_copy">
</g>
<g id="Layer_2_00000137852805600649151700000008421923189335086245_">
</g>
<g>
	<path class="st0" d="M18.2,16h-3.8v-5.3c0-1.6-0.2-2.4-1.3-2.4c-1.1,0-1.6,0.6-1.6,2.3V16H7.6V5.1h3.8v0.8c0.6-0.5,1.5-1,2.7-1
		c3.7,0,4.2,2.7,4.2,5.3C18.2,10.1,18.2,16,18.2,16z M15.1,15.3h2.4V10c0-2.8-0.5-4.5-3.5-4.5c-1.4,0-2.4,0.8-2.7,1.5l-0.1,0.2h-0.5
		l-0.1-0.4V5.8H8.3v9.5h2.5v-4.7c0-0.8,0-3,2.3-3c2,0,2,1.9,2,3.1L15.1,15.3L15.1,15.3z"/>
	<path class="st0" d="M6.4,16H2.4V5.1h3.8L6.4,16L6.4,16z M3.1,15.3h2.4V5.8H3.1V15.3z"/>
	<path class="st0" d="M4.4,4.4c-1.2,0-2.2-1-2.2-2.2S3.2,0,4.4,0s2.2,1,2.2,2.2S5.6,4.4,4.4,4.4z M4.4,0.7c-0.8,0-1.5,0.7-1.5,1.5
		c0,0.9,0.7,1.5,1.5,1.5S5.9,3,5.9,2.2S5.2,0.7,4.4,0.7z"/>
</g>
</svg>
