<?xml version="1.0" encoding="utf-8"?>
<!-- Generator: Adobe Illustrator 26.0.3, SVG Export Plug-In . SVG Version: 6.00 Build 0)  -->
<svg version="1.1" id="Layer_1" xmlns="http://www.w3.org/2000/svg" xmlns:xlink="http://www.w3.org/1999/xlink" x="0px" y="0px"
	 viewBox="0 0 48 48" style="enable-background:new 0 0 48 48;" xml:space="preserve">
<style type="text/css">
	.st0{fill:#FFFFFF;}
</style>
<g id="Layer_2_copy">
</g>
<g id="Layer_2_00000118378892432962874810000007618404594055873158_">
</g>
<g id="Layer_1_00000117636768736888552570000002163703069185280912_">
	<path class="st0" d="M0,0v48h48V0H0z M2,45.9V2.1h44V46L2,45.9L2,45.9z M18.4,12.8c0.7,0,1.2,0.6,1.2,1.2c0,1.6,0.2,3.1,0.7,4.5
		c0.1,0.4,0,0.9-0.3,1.3l-2.7,2.8c1.8,3.5,4.7,6.4,8.2,8.2l2.7-2.8c0.2-0.2,0.6-0.4,0.9-0.4c0.1,0,0.3,0,0.4,0.1
		c1.4,0.5,2.9,0.7,4.5,0.7c0.7,0,1.2,0.6,1.2,1.2V34c0,0.7-0.6,1.2-1.2,1.2c-11.7,0-21.2-9.5-21.2-21.2c0-0.7,0.6-1.2,1.2-1.2H18.4
		 M18.4,11.8H14c-1.2,0-2.2,1-2.2,2.2c0,12.3,10,22.2,22.2,22.2c1.2,0,2.2-1,2.2-2.2v-4.4c0-1.2-1-2.2-2.2-2.2
		c-1.4,0-2.8-0.2-4.1-0.7c-0.2-0.1-0.5-0.1-0.7-0.1c-0.6,0-1.2,0.2-1.6,0.7l-2.2,2.2c-2.8-1.6-5.2-4-6.8-6.8l2.2-2.2
		c0.6-0.6,0.8-1.5,0.6-2.3c-0.4-1.3-0.7-2.7-0.7-4.2C20.6,12.8,19.6,11.8,18.4,11.8L18.4,11.8z"/>
</g>
<g id="Layer_2_copy_00000072998314058112498250000011276379512630032529_">
</g>
<g id="Layer_2_00000135664137844369525760000003132490986481172358_">
</g>
<polygon class="st0" points="76.9,11.4 69.7,18.6 62.5,11.4 59.6,11.4 69.6,21.5 79.7,11.4 "/>
</svg>
