<?xml version="1.0" encoding="utf-8"?>
<!-- Generator: Adobe Illustrator 26.0.3, SVG Export Plug-In . SVG Version: 6.00 Build 0)  -->
<svg version="1.1" xmlns="http://www.w3.org/2000/svg" xmlns:xlink="http://www.w3.org/1999/xlink" x="0px" y="0px"
	 viewBox="0 0 24.5 24.5" style="enable-background:new 0 0 24.5 24.5;" xml:space="preserve">
<style type="text/css">
	.st0{fill:url(#SVGID_1_);}
	.st1{fill:#FFFFFF;}
	.st2{fill:url(#SVGID_00000122715736248856820320000004712210359907030412_);}
	.st3{fill:url(#SVGID_00000110466965777678726490000017432220324853311639_);}
	.st4{fill:#3F3F3F;}
	.st5{fill:url(#SVGID_00000112608355289731169930000015723424063324681359_);}
	.st6{fill:#E5E5E5;}
	.st7{fill:url(#SVGID_00000075126631621972647410000011753001252532524219_);}
	.st8{fill:none;stroke:url(#SVGID_00000134241490611359965160000014714570345133434519_);stroke-width:3;stroke-miterlimit:10;}
	.st9{fill:none;stroke:#FFFFFF;stroke-width:3;stroke-miterlimit:10;}
	.st10{fill:url(#SVGID_00000182509218934054217200000000825839677998059398_);}
	.st11{fill:#7837D1;}
</style>
<g id="Layer_2_copy">
</g>
<g id="Layer_2">
</g>
<g id="Layer_1">
	<path class="st11" d="M6.6,1c0.7,0,1.2,0.6,1.2,1.2c0,1.6,0.2,3.1,0.7,4.5c0.1,0.4,0,0.9-0.3,1.3l-2.7,2.8c1.8,3.5,4.7,6.4,8.2,8.2
		l2.7-2.8c0.2-0.2,0.6-0.4,0.9-0.4c0.1,0,0.3,0,0.4,0.1c1.4,0.5,2.9,0.7,4.5,0.7c0.7,0,1.2,0.6,1.2,1.2v4.4c0,0.7-0.6,1.2-1.2,1.2
		C10.5,23.5,1,14,1,2.2C1,1.6,1.6,1,2.2,1H6.6 M6.6,0H2.2C1,0,0,1,0,2.2c0,12.3,10,22.2,22.2,22.2c1.2,0,2.2-1,2.2-2.2v-4.4
		c0-1.2-1-2.2-2.2-2.2c-1.4,0-2.8-0.2-4.1-0.7c-0.2-0.1-0.5-0.1-0.7-0.1c-0.6,0-1.2,0.2-1.6,0.7l-2.2,2.2c-2.8-1.6-5.2-4-6.8-6.8
		L9,8.7c0.6-0.6,0.8-1.5,0.6-2.3C9.1,5.1,8.9,3.7,8.9,2.2C8.9,1,7.9,0,6.6,0L6.6,0z"/>
</g>
</svg>
